<?xml version="1.0" ?><svg id="Layer_1" style="enable-background:new 0 0 80 80;" version="1.1" viewBox="0 0 80 80" xml:space="preserve" xmlns="http://www.w3.org/2000/svg" xmlns:xlink="http://www.w3.org/1999/xlink"><title/><g id="Layer_2"><g id="Layer_3"><path d="M40,5.4C20.9,5.4,5.4,20.9,5.4,40c0,19.1,15.5,34.6,34.5,34.6S74.5,59.1,74.6,40c0,0,0,0,0,0C74.5,20.9,59.1,5.5,40,5.4z     M40,71.6C22.6,71.6,8.4,57.4,8.4,40C8.4,22.6,22.6,8.4,40,8.4S71.5,22.6,71.6,40c0,0,0,0,0,0C71.5,57.4,57.4,71.5,40,71.6z"/><path d="M64.6,39.1c-9.6-13.7-28.4-17.1-42.1-7.5c-2.9,2-5.5,4.6-7.5,7.5L14.4,40l0.6,0.9c9.6,13.7,28.4,17.1,42.1,7.5    c2.9-2,5.5-4.6,7.5-7.5l0.6-0.9L64.6,39.1z M39.8,50.8c-8.5,0-16.6-4-21.7-10.8c9.1-12,26.2-14.4,38.2-5.3c2,1.5,3.8,3.3,5.3,5.3    C56.4,46.8,48.3,50.8,39.8,50.8z"/><path d="M40.1,31.2c-4.9,0-8.8,3.9-8.8,8.8s3.9,8.8,8.8,8.8s8.8-3.9,8.8-8.8C48.8,35.2,44.9,31.3,40.1,31.2z M40.1,45.9    c-3.2,0-5.8-2.6-5.8-5.8s2.6-5.8,5.8-5.8c3.2,0,5.8,2.6,5.8,5.8c0,0,0,0,0,0C45.8,43.3,43.3,45.9,40.1,45.9z"/><circle cx="40.1" cy="40" r="3.3"/></g></g></svg>